# xmcd
#
# Track frame offsets:
#	150
#	8929
#	22772
#	38468
#	50416
#	64004
#	78064
#	87189
#	105304
#	115130
#	126322
#	142667
#	158393
#
# Disc length: 2253 seconds
#
# Revision: 1
# Processed by: cddbd v1.5.2PL0 Copyright (c) Steve Scherf et al.
# Submitted via: audiograbber 1.83.01
#
DISCID=8408cb0d
DTITLE=Blues Brother Castro - Out On The Beach
DYEAR=2011
DGENRE=rock
TTITLE0=Walk In The Park
TTITLE1=The Score
TTITLE2=Show Me How You Do It
TTITLE3=Shopping
TTITLE4=Blanks
TTITLE5=Your High (Is A Little Too Low For The Rest Of Us)
TTITLE6=Summer Convention
TTITLE7=Stone Cold Son Of A Monkey
TTITLE8=Sunbathing
TTITLE9=Get It Together
TTITLE10=The Currency
TTITLE11=Spiders
TTITLE12=Home At Last
EXTD=
EXTT0=
EXTT1=
EXTT2=
EXTT3=
EXTT4=
EXTT5=
EXTT6=
EXTT7=
EXTT8=
EXTT9=
EXTT10=
EXTT11=
EXTT12=
PLAYORDER=
